<?xml version="1.0" standalone="no"?><!DOCTYPE svg PUBLIC "-//W3C//DTD SVG 1.1//EN" "http://www.w3.org/Graphics/SVG/1.1/DTD/svg11.dtd"><svg t="1663589345714" class="icon" viewBox="0 0 1024 1024" version="1.1" xmlns="http://www.w3.org/2000/svg" p-id="13935" xmlns:xlink="http://www.w3.org/1999/xlink" width="128" height="128"><path d="M618.666667 133.333333a186.688 186.688 0 0 1 185.6 166.464l74.218666-41.216a80 80 0 0 1 118.848 69.930667v366.976a80 80 0 0 1-118.848 69.930667l-74.24-41.216A186.688 186.688 0 0 1 618.666667 890.666667H234.666667A186.666667 186.666667 0 0 1 48 704V320A186.666667 186.666667 0 0 1 234.666667 133.333333z m0 74.666667H234.666667A112 112 0 0 0 122.666667 320v384c0 61.866667 50.133333 112 112 112h384c61.866667 0 112-50.133333 112-112V320c0-61.866667-50.133333-112-112-112z m303.338666 117.930667a5.333333 5.333333 0 0 0-7.253333-2.090667l-106.666667 59.264a5.333333 5.333333 0 0 0-2.752 4.672v248.448c0 1.941333 1.066667 3.733333 2.752 4.672l106.666667 59.264a5.333333 5.333333 0 0 0 7.914667-4.672V328.512a5.333333 5.333333 0 0 0-0.661334-2.581333zM341.333333 288a32 32 0 0 1 3.072 63.850667L341.333333 352h-106.666666a32 32 0 0 1-3.072-63.850667L234.666667 288h106.666666z" p-id="13936"></path></svg>