<?xml version="1.0" standalone="no"?><!DOCTYPE svg PUBLIC "-//W3C//DTD SVG 1.1//EN" "http://www.w3.org/Graphics/SVG/1.1/DTD/svg11.dtd"><svg t="1655013095147" class="icon" viewBox="0 0 1024 1024" version="1.1" xmlns="http://www.w3.org/2000/svg" p-id="7186" width="128" height="128" xmlns:xlink="http://www.w3.org/1999/xlink"><defs><style type="text/css">@font-face { font-family: feedback-iconfont; src: url("//at.alicdn.com/t/font_1031158_u69w8yhxdu.woff2?t=1630033759944") format("woff2"), url("//at.alicdn.com/t/font_1031158_u69w8yhxdu.woff?t=1630033759944") format("woff"), url("//at.alicdn.com/t/font_1031158_u69w8yhxdu.ttf?t=1630033759944") format("truetype"); }
</style></defs><path d="M896 832H128c-35.2 0-64-28.8-64-64s28.8-64 64-64h768c35.2 0 64 28.8 64 64s-28.8 64-64 64z" p-id="7187"></path><path d="M513.5 312.5m-120.5 0a120.5 120.5 0 1 0 241 0 120.5 120.5 0 1 0-241 0Z" p-id="7188"></path><path d="M735.7 614.5c-0.9 6.5-4 12.3-8.4 16.8-5.4 5.4-12.8 8.7-20.9 8.7H317.7c-14.9 0-27.3-11.1-29.3-25.5 0.2-4.3 0.6-8.6 1-12.9 7.3-67.1 44.4-125.4 97.8-161.4 11.8-7.9 27.2-7.8 38.9 0.2 8.5 5.8 17.6 10.8 27.2 14.8 19.1 8.1 39.4 12.2 60.3 12.2s41.2-4.1 60.3-12.2c9.2-3.9 17.9-8.6 26.1-14.1 11.7-7.9 27.1-7.8 38.7 0.2 52.4 36.1 88.8 93.9 96 160.3 0.4 4.3 0.8 8.6 1 12.9zM343.5 384.3c0.9 2.1 1.8 4.2 2.8 6.3-24.9 17.6-47.1 39.3-65.4 63.8-37-15.7-62.9-52.4-62.9-95.1 0-57 46.2-103.3 103.3-103.3 5.5 0 10.9 0.4 16.2 1.3-5.6 17.8-8.4 36.3-8.4 55.2-0.1 24.9 4.8 49 14.4 71.8zM246.3 468.9c5.7 3.9 11.7 7.4 18 10.3-19.9 33.5-32.5 69.9-37.7 108.3l-1.2 3.8v7c-0.4 4.3-0.7 8.7-1 13.1l-0.1 1.6v6.1l0.6 4.5c0.8 5.6 2.1 11.1 3.9 16.5h-75.4c-12.8 0-23.4-9.5-25.1-21.8 0.2-3.7 0.5-7.4 0.9-11 6.3-57.5 38-107.5 83.8-138.4 10-7 23.3-6.9 33.3 0z" p-id="7189"></path><path d="M808.8 359.3c0 43.5-26.9 80.8-65 96-17.7-24-39.1-45.3-63.9-63 1.2-2.6 2.4-5.2 3.5-7.9 9.6-22.8 14.5-47 14.5-71.8 0-18.9-2.8-37.5-8.4-55.3 5.2-0.8 10.5-1.2 16-1.2 57-0.1 103.3 46.1 103.3 103.2zM895.9 618.2c-0.8 5.6-3.4 10.6-7.2 14.4-4.6 4.6-10.9 7.5-17.9 7.5h-75.7c1.8-5.4 3.1-10.9 3.9-16.5l0.9-6-0.3-6.1c-0.3-5.5-0.7-11.1-1.3-16.6-4.4-40.9-17.5-79.8-37.9-114.5 6.7-3 13.2-6.6 19.3-10.7 10-6.8 23.2-6.7 33.2 0.2 44.9 30.9 76.1 80.5 82.3 137.4 0.3 3.5 0.6 7.2 0.7 10.9z" p-id="7190"></path></svg>